PathFileType	4	(x/y/z)	S06_PSF_T08
DataRate	CameraRate	NumFrames	NumMarkers	Units	OrigDataRate	OrigDataStartFrame	OrigNumFrames
240	240	4	51	mm	240	153	407
Frame#	Time	Sternum			R.Acromium			L.Acromium			Top.Head			R.ASIS			L.ASIS			R.PSIS			L.PSIS			R.Great.Tro			L.Great.Tro			R.Iliac.Crest			L.Iliac.Crest			V.Sacral			R.Thigh.Upper.Post			R.Thigh.Lower.Ant			R.Thigh.Lower.Post			R.Thigh.Upper.Ant			R.Knee.Lat			R.Knee.Med			R.Shank.Upper.Post			R.Shank.Lower.Ant			R.Shank.Lower.Post			R.Shank.Upper.Ant			R.Ankle.Lat			R.Ankle.Med			R.Heel.Upper			R.Heel.Med			R.Heel.Lat			R.Toe.Lat			R.Toe.Med			R.Toe.Tip			L.Thigh.Upper.Post			L.Thigh.Lower.Ant			L.Thigh.Lower.Post			L.Thigh.Upper.Ant			L.Knee.Lat			L.Knee.Med			L.Shank.Upper.Post			L.Shank.Lower.Ant			L.Shank.Lower.Post			L.Shank.Upper.Ant			L.Ankle.Lat			L.Ankle.Med			L.Heel.Upper			L.Heel.Med			L.Heel.Lat			L.Toe.Lat			L.Toe.Med			L.Toe.Tip			Cervical.Spine			Back			
		X1	Y1	Z1	X2	Y2	Z2	X3	Y3	Z3	X4	Y4	Z4	X5	Y5	Z5	X6	Y6	Z6	X7	Y7	Z7	X8	Y8	Z8	X9	Y9	Z9	X10	Y10	Z10	X11	Y11	Z11	X12	Y12	Z12	X13	Y13	Z13	X14	Y14	Z14	X15	Y15	Z15	X16	Y16	Z16	X17	Y17	Z17	X18	Y18	Z18	X19	Y19	Z19	X20	Y20	Z20	X21	Y21	Z21	X22	Y22	Z22	X23	Y23	Z23	X24	Y24	Z24	X25	Y25	Z25	X26	Y26	Z26	X27	Y27	Z27	X28	Y28	Z28	X29	Y29	Z29	X30	Y30	Z30	X31	Y31	Z31	X32	Y32	Z32	X33	Y33	Z33	X34	Y34	Z34	X35	Y35	Z35	X36	Y36	Z36	X37	Y37	Z37	X38	Y38	Z38	X39	Y39	Z39	X40	Y40	Z40	X41	Y41	Z41	X42	Y42	Z42	X43	Y43	Z43	X44	Y44	Z44	X45	Y45	Z45	X46	Y46	Z46	X47	Y47	Z47	X48	Y48	Z48	X49	Y49	Z49	X50	Y50	Z50	X51	Y51	Z51	

153	0.63333	-636.26	1270.3	338.4	-779.4	1468.8	506.41	-763.77	1476.9	153.46	-745.32	1793.7	336.17	-683.09	1036.5	457.07	-666.72	1029.7	203.84	NaN	NaN	NaN	-874.21	1056.1	277.08	-733.65	959.33	505.08	-776.59	959.12	147.3	-776.32	1106.7	486.33	-738.59	1103.6	166.34	-890.03	1018.9	319.18	-672.58	717.83	487.09	-597.75	655.94	448.62	-662.46	631.58	461.23	-604.87	744.3	470.23	-607.3	536.46	448.06	-607.19	543.01	319.17	-599.11	304.93	440.02	-525.83	255.8	419.22	-586.61	229.28	423.85	-540.23	330	434.11	-525.79	109.18	397.4	-511.36	125.36	312.75	-576.44	67.208	342.9	-562.36	38.629	311.97	-566.06	34.978	376.4	-391.15	52.343	422.37	-367.1	75.17	306.67	-306.61	101.91	355.19	-784.19	705.09	166.07	-749.44	612.21	214.77	-820.09	622.61	180.71	-717.2	700.27	194.31	-870.4	534.6	199.2	-828.59	525.97	315.23	-1036.4	370.12	219.16	-1019.2	283.24	217.92	-1081.9	314.62	238.84	-978.55	340	203.96	-1124.5	172.94	240.08	-1099.8	185.09	326.09	-1209.5	178.79	286.9	-1219.6	155.71	320.91	-1219.2	153.42	258.96	-1076.2	50.468	223.62	-1058.5	51.699	342.81	-991.53	40.494	290.75	-828.94	1526.8	328.91	-878.43	1252.4	318.28
154	0.6375	-630.33	1271	338.82	-773.65	1469.3	506.83	-758.05	1477.5	153.87	-739.66	1794.2	336.51	-677	1037.2	457.48	-660.59	1030.3	204.34	NaN	NaN	NaN	-868.03	1056.6	277.34	-727.61	960.08	505.51	-770.09	959.27	147.7	-770.25	1107.4	486.7	-732.39	1104.2	166.72	-883.89	1019.4	319.49	-666.47	718.44	487.59	-592.09	656.46	448.96	-656.77	632.17	461.88	-598.99	744.87	470.43	-601.96	536.81	448.5	-602.47	543.2	319.6	-595.57	305.15	440.58	-522.78	255.46	419.42	-583.74	229.39	424.34	-536.51	329.75	434.39	-524.29	108.9	397.56	-509.81	124.96	312.85	-575.64	67.745	343.06	-561.98	38.998	312.07	-565.68	35.33	376.49	-390.44	50.493	422.24	-366.13	72.914	306.45	-305.17	98.764	354.87	-775.96	704.88	165.71	-740.37	612.1	213.93	-811.16	622.06	180.06	-708.84	700.5	193.78	-861.06	534.03	198.34	-818.54	524.82	314.14	-1028.9	371.88	218.49	-1012.9	284.79	216.79	-1075.1	317	238.14	-971.46	341.04	202.87	-1119.4	175.75	239.05	-1094.6	187.6	324.98	-1203.7	184.13	285.95	-1214.5	161.75	320.22	-1214.3	159	258.24	-1074.9	51.41	223.42	-1057.2	52.854	342.5	-991.11	40.15	290.68	-823.24	1527.2	329.3	-872.42	1252.8	318.66
155	0.64167	-624.43	1271.7	339.22	-767.89	1469.9	507.24	-752.36	1478	154.28	-734	1794.8	336.85	-670.95	1038	457.88	-654.51	1030.9	204.85	NaN	NaN	NaN	-861.9	1057	277.6	-721.63	960.88	505.95	-763.63	959.42	148.11	-764.2	1108	487.06	-726.25	1104.8	167.1	-877.79	1019.9	319.81	-660.44	719.1	488.1	-586.46	657.03	449.34	-651.12	632.8	462.57	-593.14	745.48	470.67	-596.68	537.17	448.98	-597.73	543.44	320.08	-592.12	305.39	441.16	-519.83	255.15	419.66	-580.97	229.54	424.83	-532.89	329.53	434.71	-522.88	108.67	397.72	-508.32	124.63	312.96	-574.9	68.253	343.21	-561.62	39.366	312.16	-565.32	35.665	376.58	-389.8	48.778	422.16	-365.23	70.808	306.27	-303.83	95.773	354.59	-767.62	704.64	165.33	-731.13	611.99	213.08	-802.07	621.48	179.39	-700.36	700.74	193.24	-851.5	533.43	197.44	-808.26	523.63	313.03	-1021.1	373.65	217.75	-1006.4	286.36	215.61	-1067.9	319.41	237.37	-964.1	342.09	201.74	-1114.1	178.65	237.96	-1089.2	190.18	323.82	-1197.5	189.62	284.91	-1209	167.97	319.4	-1209.1	164.77	257.41	-1073.5	52.516	223.18	-1055.7	54.149	342.16	-990.61	39.777	290.58	-817.55	1527.7	329.68	-866.44	1253.3	319.03
156	0.64583	-618.56	1272.4	339.6	-762.13	1470.4	507.65	-746.69	1478.6	154.68	-728.35	1795.3	337.18	-664.94	1038.8	458.29	-648.48	1031.5	205.35	NaN	NaN	NaN	-855.81	1057.5	277.86	-715.72	961.72	506.4	-757.2	959.56	148.53	-758.18	1108.7	487.42	-720.17	1105.4	167.47	-871.73	1020.4	320.13	-654.5	719.8	488.64	-580.87	657.64	449.76	-645.5	633.47	463.28	-587.33	746.12	470.95	-591.49	537.55	449.48	-592.96	543.73	320.59	-588.77	305.65	441.76	-516.98	254.87	419.92	-578.28	229.72	425.33	-529.36	329.32	435.05	-521.55	108.46	397.88	-506.89	124.34	313.09	-574.23	68.728	343.37	-561.27	39.728	312.26	-564.98	35.982	376.67	-389.2	47.2	422.12	-364.41	68.847	306.11	-302.59	92.944	354.34	-759.16	704.38	164.93	-721.73	611.89	212.21	-792.82	620.86	178.72	-691.78	701	192.68	-841.73	532.78	196.52	-797.76	522.41	311.88	-1013	375.44	216.96	-999.58	287.95	214.4	-1060.5	321.85	236.55	-956.47	343.16	200.59	-1108.5	181.61	236.81	-1083.5	192.82	322.63	-1191	195.26	283.76	-1203.2	174.35	318.45	-1203.4	170.72	256.46	-1072	53.804	222.88	-1054.1	55.596	341.76	-990.01	39.377	290.45	-811.87	1528.1	330.07	-860.47	1253.7	319.41
